<svg width="110" height="110" viewBox="0 0 110 110" fill="none" xmlns="http://www.w3.org/2000/svg">
<path fill-rule="evenodd" clip-rule="evenodd" d="M4.09915 3.2583C3.43492 3.37532 3.08004 3.94066 3.21273 4.67048C3.24182 4.83068 3.3904 5.23829 3.54291 5.57621C4.40698 7.49134 4.73889 9.26621 5.03077 13.5327C5.1369 15.0841 5.14982 20.7101 5.05632 24.679C4.95794 28.8539 4.92246 36.9215 4.99517 38.5767C5.03111 39.3951 5.06351 40.1973 5.06722 40.3595C5.07087 40.5217 5.09731 40.6543 5.12595 40.6543C5.15465 40.6543 5.1638 40.6172 5.14645 40.5719C5.12904 40.5266 5.13937 40.4743 5.16941 40.4557C5.19946 40.4371 5.20709 40.3945 5.18637 40.361C5.16554 40.3273 5.17452 40.316 5.20642 40.3357C5.23814 40.3553 5.39543 40.2325 5.55597 40.0628C5.71651 39.893 5.86958 39.7676 5.89614 39.784C5.9227 39.8004 5.96268 39.7843 5.98503 39.7481C6.01041 39.7071 6.00137 39.6974 5.96088 39.7225C5.92522 39.7445 5.89603 39.7339 5.89603 39.6989C5.89603 39.6639 5.94022 39.645 5.99429 39.6568C6.04837 39.6687 6.0856 39.7103 6.07712 39.7493C6.06864 39.7884 6.0893 39.8033 6.12305 39.7824C6.15685 39.7616 6.16949 39.7055 6.15124 39.6579C6.13293 39.6103 6.10547 39.2654 6.0902 38.8915C6.07493 38.5176 6.0377 37.6305 6.00743 36.9202C5.88109 33.9532 6.00361 27.3304 6.28999 21.6467C6.34783 20.4997 6.40943 19.1286 6.51965 16.5369C6.60366 14.5628 6.55368 10.0135 6.43632 8.94198C6.33081 7.97908 6.21059 7.25842 6.05454 6.65406C5.83038 5.78549 5.71522 5.80498 7.06882 6.4824C8.99945 7.44856 10.6305 8.36917 12.7466 9.68713C14.2607 10.6301 15.3222 11.3588 18.7268 13.7924C20.4563 15.0286 22.2757 16.3177 22.7698 16.657C25.0184 18.2011 25.7531 18.6808 25.8476 18.6667C25.9036 18.6583 25.9637 18.6888 25.9812 18.7344C26.0051 18.7968 26.0597 18.7663 26.2023 18.6106C26.3064 18.4969 26.3916 18.4247 26.3916 18.45C26.3916 18.4755 26.4697 18.3901 26.5651 18.2604C26.6605 18.1306 26.757 18.0359 26.7795 18.0498C26.802 18.0637 26.8558 18.0259 26.8992 17.9657C26.9425 17.9056 27.0166 17.8544 27.0638 17.852C27.1249 17.8489 27.1287 17.8392 27.0771 17.8185C27.0226 17.7966 27.0203 17.7704 27.0679 17.7131C27.1409 17.6252 27.0943 17.5195 26.9826 17.5195C26.9407 17.5195 26.898 17.4986 26.8876 17.473C26.8691 17.427 26.5943 17.233 23.3313 14.962C22.4048 14.3171 20.7371 13.1473 19.6253 12.3624C15.2413 9.26739 13.0663 7.91821 6.31717 4.1076C4.93986 3.32995 4.54674 3.17941 4.09915 3.2583ZM110.367 7.42537C110.143 7.506 109.838 7.69984 109.329 8.08583C109.097 8.26125 108.592 8.62792 108.206 8.90071C106.167 10.341 104.354 11.8554 102.085 14.0124C100.215 15.7896 97.3507 18.6274 96.0501 19.9902C93.1407 23.0391 92.1641 24.2346 88.8251 28.8342C84.6481 34.5883 83.6446 36.1965 80.1002 42.8162C78.5458 45.7191 76.3354 50.3483 76.0792 51.2373C76.0311 51.4039 76.0313 51.4038 76.2037 51.1947C76.2986 51.0795 76.4034 51.0021 76.4366 51.0226C76.4698 51.043 76.481 51.0341 76.4615 51.0026C76.4421 50.9711 77.2133 50.1665 78.1754 49.2144C79.1375 48.2624 79.9061 47.5136 79.8834 47.5504C79.8606 47.5871 79.8544 47.6172 79.8695 47.6172C79.8974 47.6172 79.9722 47.4674 80.3179 46.7188C82.3061 42.413 84.3096 38.602 85.9857 35.9375C87.0538 34.2395 87.8062 33.1445 90.4803 29.3958C93.8338 24.6945 95.1423 23.0801 98.4907 19.5129C101.944 15.8336 104.779 13.0556 106.746 11.4225C107.818 10.5317 109.722 9.15284 109.879 9.15284C109.911 9.15284 109.965 9.28552 110 9.44764C110.034 9.60975 110.151 9.88714 110.259 10.064C110.435 10.3494 110.478 10.5043 110.645 11.4398C110.865 12.6791 110.988 13.5774 111.069 14.538C111.129 15.2509 111.349 19.0296 111.35 19.3585C111.35 19.4831 111.377 19.541 111.434 19.541C111.481 19.541 111.519 19.5184 111.519 19.4909C111.519 19.4633 111.558 19.4257 111.606 19.4073C111.665 19.3847 111.68 19.3964 111.652 19.4434C111.63 19.4817 111.662 19.4687 111.724 19.4147C111.786 19.3607 111.86 19.3164 111.889 19.3164C111.918 19.3164 112.035 19.2532 112.148 19.176C112.262 19.0988 112.383 19.0356 112.418 19.0356C112.453 19.0356 112.521 18.9957 112.57 18.9468C112.649 18.8675 112.655 18.6257 112.623 16.7147C112.585 14.4769 112.522 13.583 112.277 11.8142C112.195 11.2306 112.119 10.4958 112.107 10.1813C112.095 9.86535 112.049 9.52372 112.005 9.41799C111.961 9.3127 111.907 9.06468 111.886 8.8668C111.802 8.07819 111.557 7.60511 111.142 7.43182C110.929 7.34282 110.605 7.34013 110.367 7.42537ZM64.9683 19.8808C63.1296 20.0554 61.2814 20.9116 60.02 22.1732C59.0314 23.1619 58.661 23.9024 58.6651 24.8821C58.6675 25.4548 58.7202 25.6314 58.9065 25.6905C59.0866 25.7477 59.247 25.6059 59.8795 24.8305C61.0295 23.4209 61.8439 22.8375 63.3481 22.3459C64.5769 21.9444 65.9684 21.9104 66.6544 22.2653C67.822 22.869 68.1876 24.7813 67.4407 26.3776C67.3503 26.5706 67.252 26.7285 67.2221 26.7285C67.1922 26.7285 67.0884 26.6284 66.9915 26.506C66.7731 26.2304 66.0947 25.6799 65.6831 25.4444C65.4647 25.3195 65.2935 25.1566 65.0964 24.8866C64.6243 24.2395 63.9843 23.9104 63.1995 23.9112C62.0346 23.9124 60.7368 24.6955 60.2454 25.6936C60.0655 26.059 60.055 26.1131 60.055 26.6712C60.055 27.2255 60.0664 27.2853 60.2402 27.6408C60.5896 28.3553 61.306 28.9894 62.2813 29.4477C63.1377 29.85 63.5824 29.9551 64.4348 29.9563C65.242 29.9574 65.5924 29.8779 66.3968 29.5114L66.8118 29.3223L66.9196 29.4432C67.2313 29.793 68.4178 31.5608 69.0847 32.6693C69.9004 34.0248 70.5492 35.3756 71.2905 37.2614C73.0752 41.8015 73.9025 46.2291 74.101 52.3036C74.1222 52.9509 74.1545 53.4378 74.1728 53.3856C74.2438 53.1833 75.5709 51.7725 75.6902 51.7725C75.7244 51.7725 75.7764 51.7091 75.8059 51.6317C75.8353 51.5543 75.8915 51.4974 75.9308 51.5053C75.9701 51.5133 75.9982 51.4945 75.9934 51.4636C75.9884 51.4327 75.9683 51.2685 75.9484 51.0986C75.3428 45.9016 73.9469 40.3937 71.9554 35.3428C71.054 33.0568 69.9832 30.9543 68.5357 28.6282L68.2895 28.2326L68.6203 27.8164C69.4577 26.7625 69.8365 25.7865 69.893 24.5368C69.9176 23.994 69.9029 23.7246 69.8287 23.3585C69.3387 20.9406 67.5191 19.6386 64.9683 19.8808ZM62.5103 25.7003C62.0072 25.9439 61.5992 26.4963 61.5992 26.9338C61.5992 27.454 62.15 28.1738 62.8578 28.5788C63.912 29.182 64.8161 29.1477 65.7471 28.4691L65.9926 28.2903L65.7191 28.0115C65.5687 27.8581 65.3611 27.6801 65.2579 27.6159C65.088 27.5102 65.0425 27.5053 64.7771 27.5647C64.5546 27.6145 64.4105 27.6147 64.1787 27.5654C63.8133 27.4876 62.968 27.074 62.7962 26.8887C62.549 26.6224 62.4939 26.2645 62.6379 25.8603C62.6815 25.7379 62.7114 25.6321 62.7044 25.6251C62.6974 25.6181 62.6101 25.6519 62.5103 25.7003ZM40.3665 27.9375C40.3627 27.952 40.3558 27.9955 40.3512 28.0341C40.3466 28.0727 40.3012 28.1011 40.2503 28.0972C40.1993 28.0933 40.1695 28.1206 40.1839 28.158C40.1982 28.1953 40.0936 28.3331 39.9515 28.4641C39.8094 28.5951 39.7009 28.7365 39.7105 28.7784C39.72 28.8204 40.7386 29.6311 41.9739 30.5801C45.5143 33.2997 47.0847 34.579 49.1532 36.4283C49.621 36.8466 51.1408 38.2015 52.5306 39.4393C56.7432 43.1914 57.2624 43.6877 59.7936 46.3818C60.6785 47.3237 61.8701 48.5882 62.4414 49.1919C65.6617 52.5941 66.2705 53.353 68.7798 57.0929C69.158 57.6565 69.4848 58.1154 69.5061 58.1125C69.5273 58.1096 69.7216 57.9064 69.9378 57.6609C70.4723 57.0539 70.788 56.7336 70.8907 56.6942C70.9379 56.6761 70.9762 56.6289 70.9758 56.5893C70.9751 56.5385 70.9578 56.5421 70.9171 56.6016C70.8704 56.6696 70.8624 56.6618 70.8758 56.5611C70.8941 56.4239 70.7369 56.194 69.3493 54.3274C67.5382 51.8912 66.7476 51.0476 61.6834 46.148C58.0585 42.6409 57.888 42.4862 54.3274 39.4706C53.2156 38.5289 51.51 37.067 50.5371 36.2219C47.9 33.9309 46.5455 32.8106 41.8616 29.0466C41.2748 28.575 40.7442 28.1422 40.6824 28.0847C40.5677 27.978 40.3792 27.8901 40.3665 27.9375ZM29.6891 37.9435C29.7056 37.9864 29.7525 38.0088 29.7932 37.9931C29.8398 37.9753 29.856 37.9943 29.8368 38.0443C29.82 38.0881 29.7897 38.1219 29.7695 38.1196C29.6746 38.1085 29.4847 38.2018 29.512 38.2462C29.529 38.2735 29.4718 38.2977 29.3851 38.2998C29.2566 38.3031 29.247 38.3115 29.3337 38.3455C29.4318 38.3841 29.4278 38.3969 29.2825 38.5112C29.1958 38.5795 29.0659 38.6501 28.994 38.6681C28.922 38.6862 28.8752 38.7205 28.89 38.7445C28.9307 38.8103 28.6979 39.082 28.6009 39.082C28.4777 39.082 28.5428 39.2209 28.6705 39.2304C28.9054 39.248 31.2118 39.7251 32.4829 40.0192C36.033 40.8404 38.6636 41.6602 42.002 42.9855C46.7391 44.8661 50.1919 46.7102 54.7486 49.7931C57.2223 51.4669 59.0621 52.977 61.8515 55.6235C63.8003 57.4725 66.6476 60.3878 66.5752 60.4601C66.559 60.4763 66.0708 60.4604 65.4903 60.4246C63.6095 60.309 62.657 60.2523 61.6553 60.1963C57.8905 59.9858 53.2063 59.653 50.9302 59.4343C44.3503 58.8021 40.4395 57.8451 35.4602 55.6488C31.5767 53.9359 28.6882 51.6292 26.7099 48.6612C25.9635 47.5414 25.0933 45.6424 24.6234 44.1077C24.5099 43.7371 24.4052 43.3967 24.3906 43.3513C24.3713 43.291 24.3098 43.3263 24.1628 43.4822C24.0288 43.6242 23.9478 43.6738 23.9208 43.6302C23.8944 43.5875 23.8697 43.6054 23.8497 43.6818C23.8329 43.7462 23.7774 43.7988 23.7264 43.7988C23.6739 43.7988 23.6499 43.8253 23.6712 43.8598C23.7144 43.9296 23.3735 44.3042 23.2669 44.3042C23.1018 44.3042 24.3243 46.8982 25.0804 48.1523C26.819 51.0363 29.4841 53.5611 32.9615 55.619C35.0573 56.8593 38.2752 58.3074 40.6824 59.0935C44.6582 60.3919 49.5267 61.1177 55.647 61.3247C57.2471 61.3788 65.8965 61.3663 66.2317 61.3094C66.2935 61.2989 66.3626 61.265 66.3853 61.2341C66.4108 61.1994 66.4269 61.2047 66.4274 61.2482C66.4279 61.2868 66.4724 61.318 66.5265 61.3175C66.5931 61.3169 66.6031 61.3029 66.5576 61.2739C66.5171 61.2482 66.5091 61.2009 66.5373 61.1552C66.563 61.1135 66.6129 61.0971 66.648 61.1188C66.6831 61.1405 66.7049 61.1374 66.6964 61.1119C66.6736 61.0437 66.9172 60.816 66.966 60.8598C66.989 60.8804 66.9914 60.8686 66.9714 60.8335C66.9257 60.7535 67.1009 60.5541 68.2409 59.3894C68.7456 58.8739 69.1793 58.4716 69.2048 58.4954C69.2304 58.5193 69.2383 58.5009 69.2225 58.4546C69.2067 58.4083 69.1634 58.3773 69.1264 58.3858C69.0894 58.3943 69.073 58.3786 69.0902 58.3509C69.1687 58.2239 66.8949 56.0135 64.6033 53.989C60.9596 50.7699 58.7704 49.1473 55.1978 47.0177C50.6026 44.2786 46.7604 42.5192 41.6651 40.8207C38.411 39.736 35.2556 38.9183 31.6138 38.2161C29.8108 37.8684 29.6517 37.8459 29.6891 37.9435ZM10.1452 58.2219C10.1625 58.2881 10.1513 58.3423 10.1202 58.3423C10.0891 58.3423 9.91799 58.4929 9.73988 58.6771C9.56176 58.8613 9.39898 59.0013 9.37803 58.9884C9.35714 58.9755 9.33581 59.0017 9.3307 59.0467C9.32553 59.0916 9.31711 59.1649 9.31194 59.2095C9.30683 59.2541 9.28785 59.2891 9.26983 59.2871C9.10648 59.2695 9.07178 59.4023 9.1902 59.5919C9.21424 59.6304 9.23883 59.694 9.24478 59.7333C9.2691 59.8936 10.6935 62.7004 11.1747 63.5364C14.0152 68.4702 17.6142 72.2666 21.8757 74.8247C25.388 76.9331 29.166 78.2298 33.158 78.6973C34.7793 78.8873 37.8981 78.901 39.6997 78.7263C43.6085 78.3471 46.8966 77.6251 50.2234 76.4154C51.5844 75.9206 53.2694 75.2531 53.4812 75.1249C53.5716 75.0701 53.6703 75.0406 53.7004 75.0592C53.7307 75.0779 53.7373 75.0641 53.7151 75.0282C53.6896 74.987 53.7184 74.9634 53.794 74.9634C53.8636 74.9634 53.8976 74.9387 53.8761 74.9038C53.8327 74.8337 54.2728 74.3961 54.3328 74.4497C54.3552 74.4697 54.3566 74.4566 54.3359 74.4205C54.3152 74.3843 54.3837 74.2643 54.488 74.1537C54.5922 74.0431 54.6694 73.9526 54.6595 73.9526C54.6495 73.9526 54.7045 73.8895 54.7818 73.8123C54.859 73.7351 54.9471 73.6719 54.9776 73.6719C55.008 73.6719 55.0511 73.6249 55.0732 73.5674C55.0954 73.5099 55.3662 73.1923 55.6751 72.8614C55.9839 72.5306 56.2296 72.2347 56.2212 72.2037C56.2127 72.1727 56.228 72.1612 56.2551 72.1779C56.3109 72.2124 56.4986 72.0229 56.5963 71.8335C56.6319 71.7643 56.6793 71.7137 56.7015 71.7211C56.7238 71.7286 56.7508 71.7094 56.7616 71.6785C56.7723 71.6476 56.8078 71.5724 56.8405 71.5114C56.8981 71.4037 56.8959 71.4033 56.7648 71.4982C56.6905 71.5518 56.5918 71.6128 56.5454 71.6335C56.4991 71.6543 55.8927 71.9868 55.1978 72.3725C49.672 75.4397 45.8201 76.8507 41.1597 77.5149C39.3023 77.7796 38.2697 77.8427 36.3306 77.8099C34.0141 77.7708 32.7432 77.6127 30.7518 77.1159C26.6531 76.0933 22.6917 74.0941 19.504 71.4395C15.8993 68.4377 12.8249 64.1524 10.5303 58.9319C10.2224 58.2314 10.0781 57.9654 10.1452 58.2219ZM84.6375 87.4236C84.6334 87.4781 84.5149 87.641 84.3742 87.7858C84.2335 87.9305 84.1216 88.0548 84.1256 88.062C84.1571 88.1192 84.0389 88.3212 83.9912 88.2917C83.9578 88.271 83.9462 88.2796 83.9654 88.3107C83.9846 88.3418 83.9641 88.4152 83.9197 88.4738C83.8649 88.5462 83.8385 88.5556 83.8373 88.5033C83.8358 88.4411 83.8191 88.4397 83.7513 88.4961C83.7049 88.5346 83.6674 88.5945 83.6679 88.6293C83.6684 88.6659 83.6894 88.66 83.7178 88.6153C83.7447 88.5727 83.7927 88.5539 83.8245 88.5735C83.9062 88.624 84.1863 88.5078 84.1448 88.4407C84.1254 88.4093 84.1467 88.399 84.1937 88.417C84.2833 88.4514 84.5447 88.1088 84.5833 87.9064C84.5951 87.8447 84.6189 87.7563 84.6363 87.71C84.7002 87.5392 84.7223 87.3725 84.6842 87.3489C84.6626 87.3356 84.6415 87.3692 84.6375 87.4236ZM81.8443 90.9532C81.8274 90.9971 81.8279 91.0561 81.8452 91.0842C81.8626 91.1123 81.8374 91.1353 81.7892 91.1353C81.7411 91.1353 81.7017 91.1747 81.7017 91.2228C81.7017 91.2709 81.6779 91.2957 81.649 91.2777C81.6199 91.2598 81.5999 91.2941 81.6044 91.3538C81.6101 91.4296 81.792 91.5649 82.2046 91.8003C83.3255 92.44 84.0005 92.9799 84.4276 93.5785C84.7522 94.0333 84.8462 94.3124 84.8462 94.8203C84.8462 95.0481 84.8694 95.2344 84.8978 95.2344C84.9262 95.2344 85.0083 95.1397 85.0803 95.0238C85.2607 94.7336 85.2641 94.0916 85.0872 93.705C84.6905 92.8379 83.8018 91.9559 82.5159 91.1529C82.0506 90.8624 81.8967 90.8166 81.8443 90.9532Z" fill="#CD8F2D"/>
<path fill-rule="evenodd" clip-rule="evenodd" d="M27.0751 17.7044C27.0184 17.7727 27.0189 17.7951 27.0772 17.8185C27.1288 17.8391 27.1249 17.8489 27.0638 17.852C27.0166 17.8544 26.9425 17.9056 26.8992 17.9657C26.8559 18.0258 26.802 18.0636 26.7795 18.0498C26.757 18.0358 26.6605 18.1306 26.5651 18.2603C26.4697 18.3901 26.3916 18.4755 26.3916 18.45C26.3916 18.4246 26.306 18.4974 26.2012 18.6117C26.0861 18.7374 26.0016 18.7921 25.9876 18.75C25.9748 18.7117 25.9214 18.6741 25.8689 18.6664C25.8164 18.6587 25.788 18.6759 25.8056 18.7046C25.8234 18.7333 25.8588 18.7438 25.8843 18.728C25.9098 18.7123 25.9443 18.735 25.961 18.7785C25.9777 18.822 26.0539 18.8913 26.1303 18.9326C26.3102 19.0298 28.2159 20.3371 29.7889 21.4425C32.1788 23.1221 33.9731 24.4505 37.5279 27.1722C39.4716 28.6603 39.6998 28.826 39.6998 28.7498C39.6998 28.7203 39.8145 28.5903 39.9549 28.461C40.1036 28.3239 40.1975 28.1935 40.1801 28.1481C40.1628 28.103 40.175 28.0856 40.2093 28.1068C40.2418 28.1269 40.3176 28.0988 40.3777 28.0443C40.5141 27.9209 40.6793 28.0768 38.7066 26.467C35.8718 24.1536 33.2462 22.0753 31.59 20.8338C29.6237 19.3598 27.3591 17.7441 27.2594 17.7441C27.2197 17.7441 27.1778 17.7161 27.1664 17.6818C27.1531 17.6419 27.1203 17.65 27.0751 17.7044ZM112.529 18.9795C112.529 19.0104 112.49 19.0356 112.442 19.0356C112.394 19.0356 112.262 19.0988 112.148 19.176C112.035 19.2532 111.918 19.3164 111.889 19.3164C111.86 19.3164 111.786 19.3606 111.724 19.4147C111.662 19.4687 111.63 19.4817 111.652 19.4434C111.68 19.3964 111.665 19.3847 111.606 19.4072C111.558 19.4257 111.519 19.4633 111.519 19.4909C111.519 19.5184 111.474 19.5414 111.42 19.5418C111.336 19.5426 111.334 19.5507 111.406 19.5972C111.453 19.6271 111.465 19.652 111.434 19.6525C111.398 19.653 111.377 20.5696 111.374 22.2784C111.363 28.0123 110.884 30.8029 108.884 36.7798C107.162 41.9252 104.962 47.054 103.261 49.8913C101.773 52.3742 99.174 56.048 97.4022 58.1738C94.2694 61.9326 90.6336 64.1636 85.8289 65.2755C84.5142 65.5797 83.95 65.657 82.9932 65.6639C82.5145 65.6673 82.0597 65.6513 81.9825 65.6284C81.9042 65.6051 81.7587 65.4628 81.6537 65.307C81.4288 64.9734 81.0147 64.6851 80.5195 64.5173C79.6376 64.2187 78.7253 64.5879 78.3221 65.4065C78.2139 65.6261 78.1922 65.7595 78.1922 66.2048C78.1922 66.6947 78.2075 66.7705 78.375 67.1107C78.6294 67.6276 79.1874 68.1456 79.8457 68.4763C80.164 68.6361 80.3985 68.7963 80.4899 68.9161C80.8412 69.3767 81.4873 70.9699 82.0655 72.8015C82.8399 75.2547 83.1225 76.5872 83.3635 78.9221C83.5341 80.5742 83.5253 84.7861 83.3492 85.7892C83.3179 85.9673 83.31 85.9576 83.1377 85.5302C82.7892 84.6659 82.6094 84.4403 80.869 82.6843C80.1038 81.9122 78.9036 80.6698 78.2018 79.9234C77.5001 79.1769 76.7531 78.4129 76.5418 78.2256C76.3305 78.0383 75.5993 77.3076 74.9168 76.6017L73.676 75.3183L74.0999 74.7056C74.9149 73.5276 75.221 72.755 75.1764 71.9887C75.1487 71.5125 75.0504 71.2553 74.8649 71.1738C74.7956 71.1433 74.7388 71.0882 74.7388 71.0515C74.7388 71.0146 74.8261 70.5847 74.9328 70.0961C75.1654 69.0306 75.4744 67.3215 75.6366 66.2036C75.7015 65.7558 75.8184 65.1872 75.8963 64.9402C76.0188 64.5519 76.0451 64.3273 76.09 63.2837C76.1884 60.996 76.3673 59.4667 76.7958 57.2473C77.3859 54.1911 78.0167 52.1482 79.3706 48.9087C79.6094 48.3373 79.8127 47.832 79.8224 47.7856C79.8321 47.7393 79.844 47.7014 79.8487 47.7014C79.8534 47.7014 79.8654 47.6593 79.8754 47.6079C79.8853 47.5564 79.1134 48.2863 78.1598 49.2299C77.2063 50.1734 76.4421 50.9711 76.4615 51.0026C76.481 51.034 76.4706 51.0435 76.4384 51.0237C76.4063 51.0038 76.349 51.0249 76.3111 51.0705C76.2732 51.1162 76.2159 51.1373 76.1837 51.1174C76.1516 51.0976 76.141 51.1067 76.1602 51.1378C76.1795 51.1689 76.1562 51.2423 76.1086 51.3009C76.061 51.3595 76.0404 51.372 76.0629 51.3286C76.0907 51.2749 76.0819 51.2633 76.0352 51.2922C75.9974 51.3155 75.9798 51.3691 75.996 51.4113C76.0122 51.4536 75.9974 51.5054 75.9631 51.5266C75.9216 51.5523 75.9166 51.5387 75.9482 51.4864C75.9887 51.4191 75.9816 51.4189 75.9007 51.4845C75.8484 51.5269 75.8057 51.5972 75.8057 51.6407C75.8057 51.6842 75.7615 51.7365 75.7074 51.7569C75.6078 51.7945 74.7729 52.6264 74.3879 53.0718C74.2721 53.2058 74.166 53.3915 74.1522 53.4845C74.1384 53.5775 74.1127 54.2474 74.0951 54.9731C74.0406 57.227 73.9942 57.6578 73.6655 58.9599C73.5057 59.5931 73.3558 60.1326 73.3323 60.159C73.3089 60.1853 73.1617 59.9579 73.0051 59.6536C72.677 59.016 72.2427 58.3312 71.5255 57.3211C71.0637 56.6707 71.0101 56.6145 70.9092 56.6753C70.7483 56.7723 70.4009 57.1024 70.299 57.2553C70.2506 57.3279 70.0393 57.5643 69.8296 57.7806C69.6199 57.9969 69.4763 58.1738 69.5105 58.1738C69.5448 58.1738 69.5728 58.2005 69.5728 58.2332C69.5728 58.2658 69.7465 58.5627 69.9587 58.893C70.3434 59.4915 70.8041 60.2935 70.8846 60.505C70.9426 60.6572 70.9037 60.6098 70.3305 59.8303C69.8195 59.1355 69.2365 58.4203 69.1925 58.4346C69.1553 58.4467 67.3536 60.2923 67.1292 60.5483C67.0224 60.6702 66.9514 60.7985 66.9714 60.8335C66.9914 60.8686 66.989 60.8804 66.966 60.8598C66.9199 60.8184 66.673 61.0419 66.6943 61.1058C66.7017 61.1278 66.6733 61.1327 66.6314 61.1166C66.5894 61.1005 66.5407 61.1246 66.5233 61.1701C66.4821 61.2775 66.5738 61.3095 66.8504 61.2846C67.2559 61.248 67.3662 61.3037 67.6954 61.7112L68.0051 62.0945L67.8905 62.4346C67.7637 62.8111 67.745 63.2573 67.835 63.7647C67.9174 64.2296 68.2266 65.6928 68.2619 65.7848C68.2815 65.8359 68.1288 65.9422 67.7948 66.1102C67.5219 66.2474 67.1013 66.5014 66.86 66.6747C66.6188 66.848 66.4109 66.9897 66.3979 66.9897C66.385 66.9897 66.3223 66.8875 66.2585 66.7626C65.6487 65.5673 64.0309 65.2228 62.8024 66.0267C62.0187 66.5395 61.6176 67.244 61.5511 68.2249L61.5149 68.7581L60.6446 69.2567C58.6404 70.405 57.3713 71.1559 57.2603 71.2593C57.1952 71.32 57.0993 71.3696 57.0471 71.3696C56.9365 71.3696 56.8243 71.4895 56.8002 71.6335C56.7908 71.6891 56.7557 71.7285 56.7222 71.7211C56.6886 71.7137 56.6319 71.7643 56.5963 71.8334C56.4986 72.0228 56.3109 72.2124 56.2551 72.1779C56.228 72.1611 56.2127 72.1727 56.2212 72.2037C56.2297 72.2346 55.9839 72.5306 55.6751 72.8614C55.3663 73.1923 55.0954 73.5099 55.0733 73.5674C55.0511 73.6249 55.008 73.6719 54.9776 73.6719C54.9471 73.6719 54.859 73.735 54.7818 73.8122C54.7046 73.8895 54.6495 73.9526 54.6595 73.9526C54.6695 73.9526 54.5923 74.0431 54.488 74.1537C54.3837 74.2643 54.3153 74.3843 54.3359 74.4204C54.3566 74.4565 54.3552 74.4697 54.3328 74.4497C54.2674 74.3912 53.8215 74.8448 53.8834 74.9068C53.9414 74.9648 55.325 74.3885 57.2193 73.5176C57.8215 73.2407 58.3269 73.0253 58.3423 73.039C58.3578 73.0527 57.8026 73.6239 57.1086 74.3084C54.8323 76.5535 53.9548 77.5113 51.8388 80.0607C49.3838 83.0182 48.3176 84.4069 47.9401 85.1381C47.6188 85.7605 47.6499 86.2809 48.0296 86.6355C48.2234 86.8166 48.6175 86.8586 48.9053 86.7289C49.1139 86.6348 49.141 86.6355 49.6191 86.7475C50.957 87.061 52.6702 87.2371 53.8221 87.1796C56.7693 87.0325 59.735 86.095 62.4776 84.4436C64.09 83.4727 66.9429 81.4719 68.5761 80.1666C68.6919 80.074 68.8001 80.0119 68.8167 80.0284C68.8726 80.0843 67.8515 82.7287 66.9449 84.8757C66.4365 86.0795 65.6524 87.8294 65.5935 87.8913C65.572 87.9139 65.151 87.9842 64.6578 88.0475C60.2974 88.6077 56.1339 89.8173 52.7832 91.4975C49.9597 92.9133 48.4471 94.0286 47.9293 95.0765C47.7306 95.4784 47.7182 95.5334 47.7378 95.9229C47.7642 96.4453 47.9312 96.7312 48.3202 96.9194C48.5349 97.0234 48.6429 97.0406 48.9275 97.016C49.503 96.9663 50.148 96.6185 51.5479 95.6028C54.2013 93.6777 56.0554 92.7338 59.2969 91.658C60.8888 91.1296 63.8684 90.3491 64.2935 90.3491C64.3993 90.3491 64.3904 90.3843 64.1771 90.8085C64.0501 91.0612 63.6616 91.7876 63.3138 92.4229C60.8147 96.9882 58.1284 100.864 55.8441 103.201C54.4709 104.606 53.5157 105.375 51.3133 106.847C50.6239 107.308 50.0116 107.739 49.9527 107.805C49.8634 107.905 49.8562 107.949 49.9094 108.065C49.9924 108.248 50.1654 108.248 50.9151 108.066C53.7403 107.382 55.6449 106.271 58.0056 103.932C60.8995 101.064 64.6279 95.7318 67.2403 90.7242C67.572 90.0885 67.7722 89.765 67.8528 89.7347C68.078 89.6498 69.8807 89.4512 70.9945 89.3885C73.1741 89.2657 75.7548 89.5303 77.9319 90.0999C78.7658 90.3181 80.0255 90.7637 80.8988 91.1496C81.2139 91.2888 81.4856 91.3888 81.5025 91.3719C81.5194 91.355 81.5333 91.3721 81.5333 91.4099C81.5333 91.4478 81.5574 91.4638 81.5869 91.4456C81.6165 91.4273 81.6248 91.3712 81.6055 91.3208C81.582 91.2595 81.5921 91.2426 81.636 91.2697C81.6754 91.2941 81.7017 91.2753 81.7017 91.2228C81.7017 91.1747 81.7411 91.1352 81.7892 91.1352C81.8374 91.1352 81.8626 91.1123 81.8452 91.0841C81.8004 91.0116 81.8718 90.8489 81.9322 90.8862C81.9598 90.9033 81.9825 90.892 81.9825 90.8611C81.9825 90.8302 81.5589 90.5931 81.0412 90.3342C77.8104 88.7183 74.1147 87.8364 70.1203 87.7281C69.3868 87.7083 68.7867 87.674 68.7867 87.6518C68.7867 87.6298 68.9031 87.3621 69.0453 87.0572C70.1348 84.7212 71.7106 80.7729 72.6899 77.9254C72.8678 77.4081 73.0289 76.9853 73.0478 76.9859C73.0668 76.9864 73.1687 77.119 73.2742 77.2807C73.3798 77.4423 73.9251 78.1935 74.486 78.9502C75.543 80.3761 76.6594 81.9487 78.0533 83.9752C78.9345 85.2563 79.4752 85.9551 80.1675 86.7076C80.5536 87.1272 80.6238 87.2353 80.6836 87.5024C80.8617 88.2985 81.5897 88.833 82.4958 88.833C82.9884 88.833 83.667 88.7192 83.667 88.6365C83.667 88.5977 83.7049 88.5345 83.7513 88.4961C83.8094 88.4478 83.8355 88.4457 83.8355 88.4892C83.8355 88.5239 83.8102 88.5522 83.7793 88.5522C83.7485 88.5522 83.7232 88.5775 83.7232 88.6084C83.7232 88.7146 83.8115 88.6643 83.9061 88.5039C83.9583 88.4156 83.9827 88.3231 83.9604 88.2984C83.938 88.2737 83.9495 88.2705 83.9859 88.2913C84.0435 88.3244 84.1111 88.2203 84.1167 88.09C84.1176 88.0674 84.2282 87.936 84.3623 87.798C84.7049 87.4455 84.7689 87.2771 84.8977 86.3882C85.3013 83.6036 85.3299 80.5303 84.9825 77.2656C84.7714 75.282 84.3588 73.1172 83.6639 70.3469C83.5112 69.7381 83.3863 69.2303 83.3863 69.2184C83.3863 69.2066 83.7708 69.1796 84.2409 69.1584C87.5719 69.0081 90.2927 68.1674 92.9875 66.4557C96.3243 64.3361 98.6853 61.7655 102.347 56.2646C105.697 51.2339 107.028 48.5093 108.889 42.8723C109.96 39.6309 110.764 36.5553 111.43 33.1491C112.151 29.4705 112.541 25.4623 112.624 20.9027C112.651 19.4175 112.643 18.9233 112.594 18.9233C112.559 18.9233 112.529 18.9486 112.529 18.9795ZM21.0394 36.8031C20.305 37.0714 20.2262 37.8697 20.8822 38.3966C21.0248 38.5111 21.1743 38.6426 21.2145 38.689C21.3949 38.8967 21.702 39.6417 22.0351 40.6798C22.2338 41.2989 22.576 42.3677 22.7955 43.0548C23.0394 43.8178 23.2225 44.3042 23.2661 44.3042C23.3677 44.3042 23.7157 43.9317 23.6752 43.8662C23.6566 43.8362 23.6917 43.7984 23.7531 43.7824C23.8145 43.7663 23.8652 43.7066 23.8656 43.6497C23.8663 43.5693 23.8774 43.5634 23.9153 43.6231C23.9534 43.6833 23.9984 43.6616 24.1211 43.5239C24.2366 43.3942 24.2903 43.3665 24.3244 43.4188C24.3502 43.4586 24.3561 43.3939 24.3377 43.2723C24.2442 42.6534 23.5228 39.5125 23.3651 39.0372C23.28 38.7809 23.2325 38.5576 23.2595 38.5409C23.3651 38.4757 25.9343 38.7714 27.4585 39.0243C28.4694 39.192 28.5254 39.1979 28.5254 39.1379C28.5254 39.1072 28.5615 39.082 28.6056 39.082C28.6991 39.082 28.9296 38.8086 28.89 38.7445C28.8753 38.7205 28.922 38.6861 28.994 38.6681C29.066 38.65 29.1958 38.5795 29.2825 38.5112C29.4279 38.3969 29.4318 38.384 29.3337 38.3455C29.247 38.3115 29.2566 38.3031 29.3851 38.2998C29.4718 38.2977 29.529 38.2735 29.512 38.2461C29.4847 38.2018 29.6747 38.1085 29.7695 38.1196C29.7897 38.1219 29.82 38.0881 29.8368 38.0443C29.8581 37.9888 29.8397 37.9753 29.7762 37.9997C29.7109 38.0247 29.6944 38.0106 29.7176 37.95C29.7355 37.9034 29.7209 37.8636 29.6853 37.8614C29.6496 37.8593 29.2414 37.7931 28.7781 37.7144C27.7132 37.5335 26.6462 37.3868 25.044 37.2009C23.7985 37.0565 21.7507 36.8021 21.4222 36.7511C21.3295 36.7366 21.1573 36.7601 21.0394 36.8031ZM5.89604 39.703C5.89604 39.7357 5.92524 39.7445 5.9609 39.7224C6.00138 39.6974 6.01042 39.7071 5.98504 39.7481C5.96269 39.7843 5.92271 39.8004 5.89615 39.784C5.86959 39.7676 5.71652 39.893 5.55598 40.0628C5.39544 40.2325 5.23575 40.3552 5.20104 40.3353C5.16634 40.3156 5.15696 40.3203 5.18021 40.346C5.20346 40.3716 5.17819 40.4431 5.12406 40.505C5.06993 40.5668 5.05095 40.603 5.08183 40.5852C5.118 40.5645 5.13967 40.8258 5.1427 41.3196C5.14736 42.0716 5.19509 42.7607 5.36686 44.5569C5.70816 48.1262 6.31348 51.1783 7.3783 54.6988C7.89422 56.4047 8.92894 59.1975 9.11307 59.3811C9.15063 59.4186 9.15619 59.4139 9.12974 59.3671C9.09532 59.3061 9.15114 59.2743 9.26984 59.2871C9.28787 59.2891 9.30685 59.2541 9.31196 59.2095C9.31712 59.1649 9.32555 59.0916 9.33071 59.0466C9.33582 59.0017 9.35716 58.9754 9.37805 58.9884C9.39899 59.0013 9.56178 58.8612 9.73989 58.6771C9.91801 58.4929 10.0859 58.3423 10.113 58.3423C10.1684 58.3423 10.15 58.0919 10.082 57.9211C8.4891 53.9195 7.34129 49.6164 6.74181 45.3992C6.52298 43.8594 6.15271 40.3551 6.16338 39.9243C6.16535 39.8471 6.14075 39.7524 6.1088 39.7137C6.03805 39.6282 5.89604 39.621 5.89604 39.703ZM68.2349 62.9265C68.1742 63.2109 68.2695 64.0802 68.4151 64.5704C68.6209 65.2636 68.9721 65.6982 69.3262 65.6982C69.6063 65.6982 69.8572 65.8201 70.0655 66.0573L70.2475 66.2647L70.3032 66.1182C70.3339 66.0376 70.3589 65.9274 70.3589 65.8734C70.3589 65.6456 68.5052 62.666 68.3635 62.666C68.322 62.666 68.2664 62.7785 68.2349 62.9265ZM72.3374 67.1598C72.1882 67.2956 72.1046 67.3266 71.8882 67.3264C71.7215 67.3263 71.5537 67.2844 71.4382 67.214C71.3022 67.1311 71.2474 67.1201 71.2286 67.172C71.2147 67.2107 71.0654 67.7099 70.8969 68.2812C70.1992 70.6464 68.9993 73.85 68.4294 74.8691C68.1674 75.3376 67.7683 75.7492 67.3779 75.9537C67.1068 76.0957 67.0165 76.1129 66.5406 76.1136C66.064 76.1144 65.9712 76.097 65.6702 75.9501C64.9384 75.5929 64.3304 74.7068 64.1458 73.728C64.0379 73.1559 64.0712 72.2597 64.2323 71.3977C64.2901 71.0889 64.3285 70.8264 64.3176 70.8145C64.3068 70.8026 63.9668 71.1118 63.562 71.5017C63.1573 71.8917 61.6846 73.2154 60.2895 74.4433C57.6741 76.7452 56.3349 78.0092 55.0682 79.3713C53.9692 80.5531 50.609 84.4959 50.5476 84.6758C50.5133 84.776 50.9746 84.8085 52.5025 84.8133C53.7469 84.8171 54.1666 84.7983 54.6644 84.7162C57.5451 84.2411 59.6074 83.4081 62.5257 81.541C64.9584 79.9846 67.3625 78.2608 69.2359 76.7296C70.3649 75.8069 70.2867 75.9155 70.6526 74.7626C71.0762 73.4283 71.527 71.8382 71.901 70.3589C72.2357 69.0352 72.6612 67.1936 72.6612 67.0688C72.6612 66.9438 72.5364 66.9789 72.3374 67.1598ZM69.1648 68.3044C68.3191 69.0218 67.884 69.6747 67.5292 70.7582C67.2936 71.4777 67.0883 72.459 67.1123 72.7513L67.1302 72.97L67.4481 72.4365C68.0407 71.4418 69.6353 68.1004 69.5554 68.0205C69.5413 68.0064 69.3655 68.1341 69.1648 68.3044ZM73.5043 97.154C73.2038 97.309 72.9054 97.6834 72.8514 97.9731C72.8236 98.122 72.7423 98.2442 72.5695 98.3967C71.8211 99.057 72.4421 100.129 73.4902 99.9861C73.8486 99.9372 74.484 99.6255 74.8023 99.3424C75.1737 99.0121 75.3172 98.6782 75.2906 98.2068C75.2655 97.7616 75.0921 97.4549 74.7305 97.2156C74.4007 96.9973 73.8608 96.9703 73.5043 97.154Z" fill="#6C4718"/>
</svg>
